<mxfile host="app.diagrams.net" agent="Mozilla/5.0 (Macintosh; Intel Mac OS X 10_15_7) AppleWebKit/537.36 (KHTML, like Gecko) Chrome/132.0.0.0 Safari/537.36 OPR/117.0.0.0" version="26.1.1">
  <diagram name="Page-1" id="VawEFED2PTLg2IfgW1YG">
    <mxGraphModel dx="1426" dy="702" grid="1" gridSize="10" guides="1" tooltips="1" connect="1" arrows="1" fold="1" page="1" pageScale="1" pageWidth="850" pageHeight="1100" math="0" shadow="0">
      <root>
        <mxCell id="0" />
        <mxCell id="1" parent="0" />
        <mxCell id="w9D8JjucIjg7rp5rkJSN-1" value="" style="shape=image;verticalLabelPosition=bottom;labelBackgroundColor=default;verticalAlign=top;aspect=fixed;imageAspect=0;image=https://static-00.iconduck.com/assets.00/kafka-icon-2048x935-cvu4503l.png;" vertex="1" parent="1">
          <mxGeometry x="774.31" y="320" width="65.69" height="30" as="geometry" />
        </mxCell>
        <mxCell id="w9D8JjucIjg7rp5rkJSN-2" value="" style="shape=image;verticalLabelPosition=bottom;labelBackgroundColor=default;verticalAlign=top;aspect=fixed;imageAspect=0;image=https://www.svgrepo.com/show/448216/consul.svg;" vertex="1" parent="1">
          <mxGeometry x="529.9999999999999" y="40" width="50" height="50" as="geometry" />
        </mxCell>
        <mxCell id="w9D8JjucIjg7rp5rkJSN-3" value="" style="shape=image;verticalLabelPosition=bottom;labelBackgroundColor=default;verticalAlign=top;aspect=fixed;imageAspect=0;image=https://static-00.iconduck.com/assets.00/nomad-icon-1753x2048-lptmplaw.png;" vertex="1" parent="1">
          <mxGeometry x="793.61" y="20" width="42.79" height="50" as="geometry" />
        </mxCell>
        <mxCell id="w9D8JjucIjg7rp5rkJSN-4" value="" style="shape=image;verticalLabelPosition=bottom;labelBackgroundColor=default;verticalAlign=top;aspect=fixed;imageAspect=0;image=https://img.icons8.com/color/600/elasticsearch.png;" vertex="1" parent="1">
          <mxGeometry x="790" y="460" width="60" height="60" as="geometry" />
        </mxCell>
        <mxCell id="w9D8JjucIjg7rp5rkJSN-5" value="logstash_beats_*" style="shape=image;verticalLabelPosition=bottom;labelBackgroundColor=default;verticalAlign=top;aspect=fixed;imageAspect=0;image=https://static-00.iconduck.com/assets.00/logstash-icon-428x512-vaooickw.png;" vertex="1" parent="1">
          <mxGeometry x="378.28" y="235" width="33.44" height="40" as="geometry" />
        </mxCell>
        <mxCell id="w9D8JjucIjg7rp5rkJSN-6" value="" style="shape=image;verticalLabelPosition=bottom;labelBackgroundColor=default;verticalAlign=top;aspect=fixed;imageAspect=0;image=https://cdn.worldvectorlogo.com/logos/elastic-beats.svg;" vertex="1" parent="1">
          <mxGeometry x="790" y="110" width="50" height="50" as="geometry" />
        </mxCell>
        <mxCell id="w9D8JjucIjg7rp5rkJSN-14" value="" style="group" vertex="1" connectable="0" parent="1">
          <mxGeometry x="30" y="150" width="140" height="140" as="geometry" />
        </mxCell>
        <mxCell id="w9D8JjucIjg7rp5rkJSN-12" value="" style="rounded=1;whiteSpace=wrap;html=1;" vertex="1" parent="w9D8JjucIjg7rp5rkJSN-14">
          <mxGeometry width="120" height="120" as="geometry" />
        </mxCell>
        <mxCell id="w9D8JjucIjg7rp5rkJSN-8" value="" style="shape=image;verticalLabelPosition=bottom;labelBackgroundColor=default;verticalAlign=top;aspect=fixed;imageAspect=0;image=https://cdn-icons-png.flaticon.com/512/13350/13350690.png;" vertex="1" parent="w9D8JjucIjg7rp5rkJSN-14">
          <mxGeometry x="10" y="10" width="40" height="40" as="geometry" />
        </mxCell>
        <mxCell id="w9D8JjucIjg7rp5rkJSN-9" value="" style="shape=image;verticalLabelPosition=bottom;labelBackgroundColor=default;verticalAlign=top;aspect=fixed;imageAspect=0;image=https://cdn-icons-png.flaticon.com/512/13350/13350690.png;" vertex="1" parent="w9D8JjucIjg7rp5rkJSN-14">
          <mxGeometry x="70" y="10" width="40" height="40" as="geometry" />
        </mxCell>
        <mxCell id="w9D8JjucIjg7rp5rkJSN-10" value="" style="shape=image;verticalLabelPosition=bottom;labelBackgroundColor=default;verticalAlign=top;aspect=fixed;imageAspect=0;image=https://cdn-icons-png.flaticon.com/512/13350/13350690.png;" vertex="1" parent="w9D8JjucIjg7rp5rkJSN-14">
          <mxGeometry x="10" y="70" width="40" height="40" as="geometry" />
        </mxCell>
        <mxCell id="w9D8JjucIjg7rp5rkJSN-11" value="" style="shape=image;verticalLabelPosition=bottom;labelBackgroundColor=default;verticalAlign=top;aspect=fixed;imageAspect=0;image=https://cdn-icons-png.flaticon.com/512/13350/13350690.png;" vertex="1" parent="w9D8JjucIjg7rp5rkJSN-14">
          <mxGeometry x="70" y="70" width="40" height="40" as="geometry" />
        </mxCell>
        <mxCell id="w9D8JjucIjg7rp5rkJSN-13" value="" style="shape=image;verticalLabelPosition=bottom;labelBackgroundColor=default;verticalAlign=top;aspect=fixed;imageAspect=0;image=https://cdn.worldvectorlogo.com/logos/elastic-beats.svg;" vertex="1" parent="w9D8JjucIjg7rp5rkJSN-14">
          <mxGeometry x="100" y="100" width="40" height="40" as="geometry" />
        </mxCell>
        <mxCell id="w9D8JjucIjg7rp5rkJSN-22" value="ENV" style="shape=note;whiteSpace=wrap;html=1;backgroundOutline=1;darkOpacity=0.05;align=left;spacingTop=3;spacingLeft=1;" vertex="1" parent="1">
          <mxGeometry x="365" y="130" width="60" height="50" as="geometry" />
        </mxCell>
        <mxCell id="w9D8JjucIjg7rp5rkJSN-25" value="" style="curved=1;endArrow=classic;html=1;rounded=0;exitX=0.25;exitY=0;exitDx=0;exitDy=0;entryX=0.5;entryY=1;entryDx=0;entryDy=0;entryPerimeter=0;" edge="1" parent="1" source="w9D8JjucIjg7rp5rkJSN-5" target="w9D8JjucIjg7rp5rkJSN-22">
          <mxGeometry width="50" height="50" relative="1" as="geometry">
            <mxPoint x="306.28" y="240" as="sourcePoint" />
            <mxPoint x="356.28" y="190" as="targetPoint" />
            <Array as="points">
              <mxPoint x="396.28" y="220" />
            </Array>
          </mxGeometry>
        </mxCell>
        <mxCell id="w9D8JjucIjg7rp5rkJSN-27" value="" style="curved=1;endArrow=classic;html=1;rounded=0;exitX=0;exitY=0;exitDx=60;exitDy=30;exitPerimeter=0;" edge="1" parent="1" source="w9D8JjucIjg7rp5rkJSN-22" target="w9D8JjucIjg7rp5rkJSN-2">
          <mxGeometry width="50" height="50" relative="1" as="geometry">
            <mxPoint x="480" y="150" as="sourcePoint" />
            <mxPoint x="530" y="100" as="targetPoint" />
            <Array as="points">
              <mxPoint x="480" y="140" />
              <mxPoint x="480" y="100" />
            </Array>
          </mxGeometry>
        </mxCell>
      </root>
    </mxGraphModel>
  </diagram>
</mxfile>
